<svg width="90" height="47" viewBox="0 0 90 47" fill="none" xmlns="http://www.w3.org/2000/svg">
<g filter="url(#filter0_d_3_37)">
<path d="M84.5 45C82.0147 45 80 42.9853 80 40.5V17.5C80 15.0147 82.0147 13 84.5 13V13C86.9853 13 89 15.0147 89 17.5V40.5C89 42.9853 86.9853 45 84.5 45V45Z" fill="#EAEAEA"/>
<circle cx="84.5" cy="4.5" r="4.5" fill="#EAEAEA"/>
<path fill-rule="evenodd" clip-rule="evenodd" d="M30.12 1.792C27.56 0.597334 24.4667 0 20.84 0C17.3413 0 14.3333 0.575999 11.816 1.728C9.29867 2.92267 7.25067 4.544 5.672 6.592C4.05067 8.68266 2.87734 11.0933 2.152 13.824C1.384 16.5547 1 19.4773 1 22.592L1 41.376C1 43.7972 2.96278 45.76 5.384 45.76C7.80522 45.76 9.768 43.7972 9.768 41.376L9.768 22.592C9.768 20.7573 9.96 18.944 10.344 17.152C10.728 15.4027 11.3467 13.824 12.2 12.416C13.0107 11.008 14.1413 9.87733 15.592 9.024C17 8.21333 18.7707 7.808 20.904 7.808C22.9947 7.808 24.744 8.21333 26.152 9.024C27.56 9.83467 28.6907 10.944 29.544 12.352C30.3973 13.76 31.016 15.3387 31.4 17.088C31.7413 18.88 32 21.1227 32 23L31.9921 23.4301C31.9893 23.5845 31.9945 23.7371 32.0073 23.8877C32.0617 26.5751 32.422 29.1725 33.088 31.68C33.8133 34.368 34.944 36.7787 36.48 38.912C38.0587 41.0453 40.1067 42.7307 42.624 43.968C45.184 45.1627 48.2773 45.76 51.904 45.76C55.4027 45.76 58.4107 45.184 60.928 44.032C63.4453 42.8373 65.4933 41.216 67.072 39.168C68.6933 37.0773 69.8667 34.6667 70.592 31.936C71.36 29.2053 71.744 26.2827 71.744 23.168V17.384C71.744 14.9628 69.7812 13 67.36 13C64.9388 13 62.976 14.9628 62.976 17.384V23.168C62.976 25.0027 62.784 26.816 62.4 28.608C62.016 30.3573 61.3973 31.936 60.544 33.344C59.7333 34.752 58.6027 35.8827 57.152 36.736C55.744 37.5467 53.9733 37.952 51.84 37.952C49.7493 37.952 48 37.5467 46.592 36.736C45.184 35.9253 44.0533 34.816 43.2 33.408C42.3467 32 41.728 30.4213 41.344 28.672C41.0027 26.88 40.832 24.3773 40.832 22.5L40.7715 21.4055C40.7618 21.2311 40.7422 21.0599 40.7132 20.8922C40.6116 18.361 40.2592 16.351 39.656 14.08C38.9307 11.392 37.8 8.98134 36.264 6.848C34.6853 4.71467 32.6373 3.02933 30.12 1.792Z" fill="#EAEAEA"/>
<path d="M84.5 45C82.0147 45 80 42.9853 80 40.5V17.5C80 15.0147 82.0147 13 84.5 13V13C86.9853 13 89 15.0147 89 17.5V40.5C89 42.9853 86.9853 45 84.5 45V45Z" fill="#EAEAEA"/>
<path fill-rule="evenodd" clip-rule="evenodd" d="M30.12 1.792C27.56 0.597334 24.4667 0 20.84 0C17.3413 0 14.3333 0.575999 11.816 1.728C9.29867 2.92267 7.25067 4.544 5.672 6.592C4.05067 8.68266 2.87734 11.0933 2.152 13.824C1.384 16.5547 1 19.4773 1 22.592L1 41.376C1 43.7972 2.96278 45.76 5.384 45.76C7.80522 45.76 9.768 43.7972 9.768 41.376L9.768 22.592C9.768 20.7573 9.96 18.944 10.344 17.152C10.728 15.4027 11.3467 13.824 12.2 12.416C13.0107 11.008 14.1413 9.87733 15.592 9.024C17 8.21333 18.7707 7.808 20.904 7.808C22.9947 7.808 24.744 8.21333 26.152 9.024C27.56 9.83467 28.6907 10.944 29.544 12.352C30.3973 13.76 31.016 15.3387 31.4 17.088C31.7413 18.88 32 21.1227 32 23L31.9921 23.4301C31.9893 23.5845 31.9945 23.7371 32.0073 23.8877C32.0617 26.5751 32.422 29.1725 33.088 31.68C33.8133 34.368 34.944 36.7787 36.48 38.912C38.0587 41.0453 40.1067 42.7307 42.624 43.968C45.184 45.1627 48.2773 45.76 51.904 45.76C55.4027 45.76 58.4107 45.184 60.928 44.032C63.4453 42.8373 65.4933 41.216 67.072 39.168C68.6933 37.0773 69.8667 34.6667 70.592 31.936C71.36 29.2053 71.744 26.2827 71.744 23.168V17.384C71.744 14.9628 69.7812 13 67.36 13C64.9388 13 62.976 14.9628 62.976 17.384V23.168C62.976 25.0027 62.784 26.816 62.4 28.608C62.016 30.3573 61.3973 31.936 60.544 33.344C59.7333 34.752 58.6027 35.8827 57.152 36.736C55.744 37.5467 53.9733 37.952 51.84 37.952C49.7493 37.952 48 37.5467 46.592 36.736C45.184 35.9253 44.0533 34.816 43.2 33.408C42.3467 32 41.728 30.4213 41.344 28.672C41.0027 26.88 40.832 24.3773 40.832 22.5L40.7715 21.4055C40.7618 21.2311 40.7422 21.0599 40.7132 20.8922C40.6116 18.361 40.2592 16.351 39.656 14.08C38.9307 11.392 37.8 8.98134 36.264 6.848C34.6853 4.71467 32.6373 3.02933 30.12 1.792Z" fill="#EAEAEA"/>
</g>
<defs>
<filter id="filter0_d_3_37" x="0.8" y="0" width="88.4" height="46.16" filterUnits="userSpaceOnUse" color-interpolation-filters="sRGB">
<feFlood flood-opacity="0" result="BackgroundImageFix"/>
<feColorMatrix in="SourceAlpha" type="matrix" values="0 0 0 0 0 0 0 0 0 0 0 0 0 0 0 0 0 0 127 0" result="hardAlpha"/>
<feOffset dy="0.2"/>
<feGaussianBlur stdDeviation="0.1"/>
<feComposite in2="hardAlpha" operator="out"/>
<feColorMatrix type="matrix" values="0 0 0 0 0.0352941 0 0 0 0 0.0352941 0 0 0 0 0.0352941 0 0 0 0.5 0"/>
<feBlend mode="normal" in2="BackgroundImageFix" result="effect1_dropShadow_3_37"/>
<feBlend mode="normal" in="SourceGraphic" in2="effect1_dropShadow_3_37" result="shape"/>
</filter>
</defs>
</svg>
